<?xml version="1.0" encoding="UTF-8"?>
<svg width="70px" height="70px" viewBox="0 0 70 70" version="1.1" xmlns="http://www.w3.org/2000/svg" xmlns:xlink="http://www.w3.org/1999/xlink">
    <!-- Generator: Sketch 52.5 (67469) - http://www.bohemiancoding.com/sketch -->
    <title>logos/main-w</title>
    <desc>Created with Sketch.</desc>
    <defs>
        <polygon id="path-1" points="3.33333333e-05 0 69.9453333 0 69.9453333 69.0817449 3.33333333e-05 69.0817449"></polygon>
    </defs>
    <g id="Rev-1" stroke="none" stroke-width="1" fill="none" fill-rule="evenodd">
        <g id="Concept-1---Home" transform="translate(-160.000000, -6078.000000)">
            <g id="Footer" transform="translate(0.000000, 6004.000000)">
                <g id="logos/main-w" transform="translate(160.000000, 74.207782)">
                    <g id="Logo-w" transform="translate(0.000000, 0.324074)">
                        <mask id="mask-2" fill="white">
                            <use xlink:href="#path-1"></use>
                        </mask>
                        <g id="Clip-2"></g>
                        <path d="M50.6307,43.7596049 L46.2160333,31.9828148 C44.8643667,28.2122798 43.0513667,27.2980412 38.3357,27.2980412 L30.7560333,27.3089053 L34.7743667,38.1253663 L33.0033667,43.7661893 L28.5927,31.9828148 C27.2300333,28.2122798 25.4237,27.2980412 20.7140333,27.2980412 L13.1293667,27.3089053 L20.0263667,45.8800988 L33.7980333,45.8800988 L33.7980333,45.8731852 L35.5403667,40.1875885 L37.6513667,45.8800988 L51.4247,45.8800988 L57.1907,27.2980412 L55.7297,27.2980412 L50.6307,43.7596049 M69.9453667,34.5408395 C69.9453667,53.6170535 54.2877,69.0817449 34.9727,69.0817449 C15.6580333,69.0817449 3.33333333e-05,53.6170535 3.33333333e-05,34.5408395 C3.33333333e-05,15.4642963 15.6580333,-6.58436214e-05 34.9727,-6.58436214e-05 C54.2877,-6.58436214e-05 69.9453667,15.4642963 69.9453667,34.5408395" id="Fill-1" fill="#FF4242" mask="url(#mask-2)"></path>
                    </g>
                </g>
            </g>
        </g>
    </g>
</svg>