<?xml version="1.0" encoding="UTF-8"?>
<svg width="54px" height="50px" viewBox="0 0 54 50" version="1.1" xmlns="http://www.w3.org/2000/svg" xmlns:xlink="http://www.w3.org/1999/xlink">
    <!-- Generator: Sketch 52.6 (67491) - http://www.bohemiancoding.com/sketch -->
    <title>icon-process-4</title>
    <desc>Created with Sketch.</desc>
    <g id="Rev-2" stroke="none" stroke-width="1" fill="none" fill-rule="evenodd">
        <g id="Concept-1---About-Us-V2-Opt-A" transform="translate(-973.000000, -1726.000000)">
            <g id="icon-process-4" transform="translate(973.000000, 1725.848681)">
                <path d="M50.2361,4.1056 C56.1941,10.7996 50.4161,25.6686 37.3301,37.3156 C24.2441,48.9626 8.8051,52.9776 2.8461,46.2826 C-3.1119,39.5886 2.6671,24.7196 15.7531,13.0726 C28.8391,1.4256 44.2771,-2.5894 50.2361,4.1056 Z" id="Stroke-3" stroke="#616161"></path>
                <path d="M2.5818,0.3468 L50.5008,50.0418" id="Stroke-5" stroke="#616161"></path>
                <path d="M42.8592,25.1036 C42.8592,34.0656 35.5932,41.3306 26.6312,41.3306 C17.6702,41.3306 10.4052,34.0656 10.4052,25.1036 C10.4052,16.1416 17.6702,8.8766 26.6312,8.8766 C35.5932,8.8766 42.8592,16.1416 42.8592,25.1036 Z" id="Stroke-1" stroke="#FF4242"></path>
            </g>
        </g>
    </g>
</svg>