<svg id="Layer_1" data-name="Layer 1" xmlns="http://www.w3.org/2000/svg" viewBox="0 0 39.91 39.91"><defs><style>.cls-1{fill:#f1efe0;}</style></defs><path class="cls-1" d="M20,1A19,19,0,1,1,1,20,19,19,0,0,1,20,1M10.67,14.81H6l.64,1.41,3,6.63H9.54l.65,1.42L11.42,27l.27.59h19.6l-.69-1.44-1.29-2.69L29,22.88H22.86l-.33-.7-1.19-2.55h9.84l-.63-1.41L29.29,15.4,29,14.81H10.67M20,0A20,20,0,1,0,40,20,20,20,0,0,0,20,0ZM12.39,18.62,11.1,15.81H28.38l1.26,2.81Zm-1.81,4L7.51,15.81H10l1.8,4.07,8.55,0,1.26,2.69Zm1.75,4L11.1,23.85l17.31,0,1.29,2.7Z" transform="translate(-0.04 -0.04)"/></svg>